<?xml version="1.0" encoding="utf-8"?>
<!-- Generator: Adobe Illustrator 24.1.0, SVG Export Plug-In . SVG Version: 6.00 Build 0)  -->
<svg version="1.1" id="Layer_1" xmlns="http://www.w3.org/2000/svg" xmlns:xlink="http://www.w3.org/1999/xlink" x="0px" y="0px"
	 viewBox="0 0 342 313.8" style="enable-background:new 0 0 342 313.8;" xml:space="preserve">
<style type="text/css">
	.st0{fill:#FFFFFF;}
</style>
<path class="st0" d="M263.5,25.3l-13.1-9c-33.7-23-91.2,3.4-131.4,60.2c-23.3-10.4-45.7-11.2-62.2,0l0,0l-13.3,8.9
	C26.7,96.7,18.7,118.7,20.8,147c2,27.8,13.8,58.5,32.9,86.6s43.5,50.3,68.5,62.5c13.3,6.5,26.1,9.7,37.5,9.7
	c10.6,0,20.1-2.7,28.1-8.2l13.1-9l0,0c19.9-13.6,27.4-42.6,20.5-78.1c11.6-10.7,22.3-23.2,31.9-37
	C292.9,115.1,297.5,48.5,263.5,25.3z M126.1,213.3c-5.8-8-8.4-20.6-7.3-35.6c1.2-14.8,5.6-31.4,13.1-47.5
	c9.2,8.7,18.4,19.3,27.1,31.9c7.8,11.4,14.1,23.3,19.1,35.3c-16.5,11.6-32.2,17-44.1,17C131.2,214.3,128.5,214,126.1,213.3z
	 M63.5,100.8c2.6-0.7,5.1-1,8-1c8.2,0,18.1,2.6,28.8,7.8c-25.2,52-23.2,101.6,5.6,121l13.1,9c8,5.5,17.6,8.2,28.1,8.2
	c12.4,0,26.2-3.7,40.6-11.2c0.2,1,0.3,2.2,0.3,3.2c1.2,15.2-1.4,27.6-7.3,35.6c-2.4,0.7-5.1,1-8,1c-22.5,0-58.1-19.3-87.4-62.4
	c-16.9-24.9-27.3-51.8-29.1-75.7C55.2,121.1,57.8,108.6,63.5,100.8z M247.1,21c31.5,21.5,26.4,84.5-11.8,140.4
	c-1.5,2.4-3.2,4.6-4.9,7c-0.3,0.5-0.9,1-1.2,1.5c-1.7,2.2-3.4,4.4-5.1,6.6l-0.2,0.2c-1.7,2.2-3.6,4.3-5.5,6.3c-0.3,0.3-0.7,0.7-1,1
	c-1.9,2.2-3.9,4.3-6,6.3c-1.7,1.7-3.4,3.4-5.1,4.9c-0.2,0.2-0.3,0.3-0.5,0.5c-1.7,1.7-3.4,3.2-5.3,4.8c-4.9,4.4-10.2,8.4-15.3,11.8
	c-23.7,16-47,21.8-64.8,16.7h-0.2c-1.2-0.3-2.4-0.7-3.6-1.2c-0.2-0.2-0.5-0.2-0.7-0.3c-1-0.3-1.9-0.9-2.9-1.4
	c-0.3-0.2-0.5-0.3-0.9-0.5c-1-0.5-2.2-1.2-3.2-1.9l-0.2-0.2c-25.9-17.6-27.3-65.1-3.7-113.8c3.1,1.7,6.3,3.7,9.5,6
	c-8.5,17.7-13.6,35.6-14.8,52c-1.7,21.6,3.9,38.7,15.3,46.4c1.2,0.9,2.4,1.5,3.7,2.2c0,0,0,0,0.2,0c1.4,0.7,2.6,1,4.1,1.5h0.2l0,0
	c3.2,0.9,6.6,1.4,10.4,1.4c13.3,0,30.7-6.1,48.9-19.3c0.2,0,0.3-0.2,0.3-0.2l0.5-0.3c3.7-2.7,7.7-6,11.4-9.4l0.7-0.5
	c0,0,0,0,0.2-0.2l0.2-0.2c10.2-9.2,20.5-20.8,29.8-34.8c17.6-25.7,28.1-53.5,30-78.4c1.4-17-1.9-31-8.9-40c0,0,0-0.2-0.2-0.2
	c-0.2-0.2-0.3-0.3-0.5-0.5c-0.2-0.2-0.3-0.3-0.3-0.5c-0.3-0.5-0.9-1-1.2-1.4c-0.2-0.2-0.3-0.3-0.5-0.5c-0.5-0.5-0.9-0.9-1.4-1.2
	c-0.2-0.2-0.3-0.3-0.5-0.3c-0.7-0.5-1.4-1-1.9-1.5c-5.1-3.4-11.4-5.3-18.6-5.3c-31.4,0-66.5,29.5-88.3,59.3c-3.2-2-6.6-3.9-9.9-5.5
	C161.9,26.1,216.6,0.2,247.1,21z M235.3,39.6c2.9,0,5.6,0.3,8,1c5.8,7.8,8.4,20.5,7.2,35.6c-1.9,23.9-12.1,50.8-29.1,75.7
	c-4.4,6.5-9,12.4-13.8,17.9c-4.8-10.1-10.4-19.9-16.9-29.5c-11.8-17.2-25.2-31.9-39.4-43.5C180.1,57.3,214,39.6,235.3,39.6z
	 M197.8,284c-15,10.2-36.3,9.5-60-1.9c-24.2-11.8-47.7-33.2-66.3-60.5c-38-55.9-43.3-119-11.8-140.4c18.6-12.6,46-8.2,73.1,9.2
	c0,0,0,0,0.2,0.2l0,0l0,0l0,0l13,9.2c0,0,0,0,0.2,0c14.3,11.4,28.1,26.2,40,43.8c6.8,10.1,12.6,20.5,17.4,31c-2.9,3.1-5.6,6-8.5,8.7
	c-4.8-11.2-10.9-22.5-18.2-33.2c-30.5-44.8-68.2-64.8-92-64.8c-1.9,0-3.6,0.2-5.3,0.3c-5.1,0.7-9.5,2.4-13.3,4.9
	c-1,0.7-2,1.5-3.1,2.6c-0.2,0.2-0.3,0.3-0.5,0.5c-0.9,0.9-1.7,1.9-2.6,2.9c0,0.2-0.2,0.2-0.3,0.3c0,0,0,0.2-0.2,0.2
	c-7,9-10.1,23-8.9,40c1.9,24.9,12.6,52.7,30,78.4c30.5,44.8,68.2,64.8,92,64.8c3.7,0,7.2-0.5,10.4-1.4l0,0h0.2
	c1.4-0.3,2.7-0.9,4.1-1.5h0.2c1.4-0.7,2.6-1.4,3.7-2.2c11.4-7.8,17-24.7,15.3-46.4c-0.2-1.7-0.3-3.6-0.5-5.5
	c2.4-1.7,4.8-3.6,7.2-5.5c1-0.9,2-1.7,3.1-2.6C222,246.5,215.4,272.1,197.8,284z"/>
</svg>
